<svg version="1.1" id="Layer_1" xmlns="http://www.w3.org/2000/svg" xmlns:xlink="http://www.w3.org/1999/xlink" x="0px" y="0px"
	 width="100%" viewBox="0 0 860 1060" enable-background="new 0 0 860 1060" xml:space="preserve">
<path fill="#F7F7F7" opacity="1.000000" stroke="none" 
	d="
M416.000000,1061.000000 
	C277.333344,1061.000000 139.166672,1061.000000 1.000000,1061.000000 
	C1.000000,707.666687 1.000000,354.333344 1.000000,1.000000 
	C287.666656,1.000000 574.333313,1.000000 861.000000,1.000000 
	C861.000000,354.333344 861.000000,707.666687 861.000000,1061.000000 
	C712.833313,1061.000000 564.666687,1061.000000 416.000000,1061.000000 
M447.134033,937.636597 
	C469.045441,924.003296 490.928619,910.324341 512.876404,896.749817 
	C533.963196,883.707886 549.476440,865.562378 561.762573,844.295898 
	C571.457764,827.514160 576.437500,809.032532 581.755310,790.657959 
	C588.271973,768.140869 597.209167,746.747620 614.504456,730.334900 
	C626.307922,719.133728 638.906921,708.599243 652.080994,699.050903 
	C676.892395,681.068115 702.300110,663.901733 727.601624,646.603210 
	C753.628784,628.808655 770.604492,604.497070 781.050659,575.007874 
	C793.462952,539.968262 803.104797,504.154510 811.420166,467.993683 
	C820.900940,426.764832 829.507874,385.441833 830.583252,342.787323 
	C831.713806,297.945557 821.644348,256.235413 797.496338,218.707382 
	C753.932373,151.005310 693.073608,104.961098 616.195801,81.360222 
	C553.380432,62.076385 489.186646,48.372746 423.606201,42.600266 
	C405.461426,41.003136 386.877197,40.915684 368.793976,42.884811 
	C338.581970,46.174656 309.600159,55.294285 281.143219,65.980415 
	C233.540649,83.856079 192.695358,111.350502 159.973160,150.469116 
	C130.336029,185.899612 112.066986,227.088806 100.141045,271.248932 
	C93.806953,294.703217 88.798676,318.512634 82.888138,342.085571 
	C80.074089,353.308777 75.465202,363.656677 67.307106,372.370361 
	C62.244366,377.777863 57.099880,383.701569 54.127075,390.348480 
	C48.104877,403.813446 42.714104,417.685791 38.544926,431.827118 
	C31.108456,457.050659 28.878775,483.120056 33.395920,508.988617 
	C37.051117,529.921021 43.798653,550.296021 48.532230,571.064636 
	C51.108482,582.367981 52.918331,593.920349 54.047146,605.460815 
	C55.537743,620.700012 55.886734,636.047241 56.972645,651.330505 
	C58.257374,669.412170 66.951431,682.143066 85.158928,686.125549 
	C102.861603,689.997498 108.947418,701.023132 110.262726,718.154724 
	C111.890533,739.356628 115.879128,760.373901 118.708160,781.489624 
	C119.346443,786.253845 119.929382,791.127625 119.634270,795.895020 
	C118.852455,808.524963 117.264725,821.106995 116.561905,833.739441 
	C115.128014,859.511841 116.087288,885.054626 125.935616,909.457703 
	C130.702225,921.268799 135.658615,933.370667 146.175751,941.045227 
	C161.894989,952.515930 178.236679,963.146118 197.287018,968.784790 
	C222.538742,976.259094 248.313721,980.044128 274.579010,980.715942 
	C296.746460,981.283081 318.947632,981.525696 340.846863,977.420349 
	C378.312378,970.396912 413.768127,957.813843 447.134033,937.636597 
z"/>
<path fill="#010101" opacity="1.000000" stroke="none" 
	d="
M446.805481,937.801758 
	C413.768127,957.813843 378.312378,970.396912 340.846863,977.420349 
	C318.947632,981.525696 296.746460,981.283081 274.579010,980.715942 
	C248.313721,980.044128 222.538742,976.259094 197.287018,968.784790 
	C178.236679,963.146118 161.894989,952.515930 146.175751,941.045227 
	C135.658615,933.370667 130.702225,921.268799 125.935616,909.457703 
	C116.087288,885.054626 115.128014,859.511841 116.561905,833.739441 
	C117.264725,821.106995 118.852455,808.524963 119.634270,795.895020 
	C119.929382,791.127625 119.346443,786.253845 118.708160,781.489624 
	C115.879128,760.373901 111.890533,739.356628 110.262726,718.154724 
	C108.947418,701.023132 102.861603,689.997498 85.158928,686.125549 
	C66.951431,682.143066 58.257374,669.412170 56.972645,651.330505 
	C55.886734,636.047241 55.537743,620.700012 54.047146,605.460815 
	C52.918331,593.920349 51.108482,582.367981 48.532230,571.064636 
	C43.798653,550.296021 37.051117,529.921021 33.395920,508.988617 
	C28.878775,483.120056 31.108456,457.050659 38.544926,431.827118 
	C42.714104,417.685791 48.104877,403.813446 54.127075,390.348480 
	C57.099880,383.701569 62.244366,377.777863 67.307106,372.370361 
	C75.465202,363.656677 80.074089,353.308777 82.888138,342.085571 
	C88.798676,318.512634 93.806953,294.703217 100.141045,271.248932 
	C112.066986,227.088806 130.336029,185.899612 159.973160,150.469116 
	C192.695358,111.350502 233.540649,83.856079 281.143219,65.980415 
	C309.600159,55.294285 338.581970,46.174656 368.793976,42.884811 
	C386.877197,40.915684 405.461426,41.003136 423.606201,42.600266 
	C489.186646,48.372746 553.380432,62.076385 616.195801,81.360222 
	C693.073608,104.961098 753.932373,151.005310 797.496338,218.707382 
	C821.644348,256.235413 831.713806,297.945557 830.583252,342.787323 
	C829.507874,385.441833 820.900940,426.764832 811.420166,467.993683 
	C803.104797,504.154510 793.462952,539.968262 781.050659,575.007874 
	C770.604492,604.497070 753.628784,628.808655 727.601624,646.603210 
	C702.300110,663.901733 676.892395,681.068115 652.080994,699.050903 
	C638.906921,708.599243 626.307922,719.133728 614.504456,730.334900 
	C597.209167,746.747620 588.271973,768.140869 581.755310,790.657959 
	C576.437500,809.032532 571.457764,827.514160 561.762573,844.295898 
	C549.476440,865.562378 533.963196,883.707886 512.876404,896.749817 
	C490.928619,910.324341 469.045441,924.003296 446.805481,937.801758 
M296.405640,515.047058 
	C306.356567,534.070190 316.049744,553.234131 326.340118,572.071777 
	C334.530426,587.064941 347.181885,596.841125 363.689484,601.698975 
	C393.321899,610.419189 423.551056,614.150146 454.414276,613.673828 
	C487.430817,613.164307 508.576477,596.031616 520.929626,566.681519 
	C524.196533,558.919556 526.599304,550.685364 528.443970,542.454041 
	C533.662781,519.166199 529.222961,498.088623 512.432983,480.434814 
	C507.049438,474.774231 501.574677,469.062561 495.434570,464.282471 
	C463.158844,439.155975 426.693634,421.763275 388.301208,408.478363 
	C375.199127,403.944672 361.267975,400.433319 347.504669,399.470490 
	C318.916229,397.470551 295.769989,410.850189 275.392792,429.565582 
	C269.917175,434.594604 268.911530,441.413055 270.201294,448.510590 
	C270.794281,451.773682 271.480469,455.100128 272.728485,458.150696 
	C280.412140,476.931793 288.268280,495.642334 296.405640,515.047058 
M363.428650,762.815063 
	C357.538910,759.833008 352.033447,760.990173 348.478241,766.957275 
	C345.964783,771.175842 344.900818,776.231262 342.723572,780.685120 
	C340.817017,784.585327 338.692230,790.851624 335.896667,791.301086 
	C330.923248,792.100647 329.290802,785.834351 327.282562,781.757690 
	C324.930573,776.983337 323.160400,771.914185 320.685760,767.210754 
	C318.538605,763.129761 315.505951,759.653748 310.181427,760.114136 
	C304.622223,760.594910 300.692047,763.746277 299.122223,768.891479 
	C297.782013,773.284302 297.339508,777.994446 296.883209,782.602234 
	C296.336060,788.127380 293.886261,792.050537 289.578674,792.662598 
	C284.605652,793.369080 282.356262,789.729065 280.817841,785.985352 
	C278.669189,780.756775 277.604279,775.019043 275.006317,770.059326 
	C272.953552,766.140442 269.620239,762.686768 266.239349,759.731567 
	C263.333588,757.191833 259.306152,757.302673 256.797028,760.462524 
	C253.147430,765.058716 249.934464,770.046936 246.953049,775.113770 
	C244.619003,779.080444 243.479996,783.859131 240.701706,787.409851 
	C239.303741,789.196533 235.367386,789.735107 232.727768,789.451599 
	C231.660553,789.337036 230.409866,785.562134 230.258804,783.382446 
	C229.925842,778.579041 230.609436,773.696960 230.172348,768.911499 
	C229.814667,764.995483 228.996460,760.918701 227.386688,757.364136 
	C224.449585,750.878662 215.688950,749.892639 211.179565,755.397522 
	C208.881668,758.202698 207.215317,761.540100 205.375473,764.702087 
	C202.697083,769.305115 200.447128,774.200134 197.373734,778.514160 
	C195.596619,781.008728 192.561600,782.607178 190.092712,784.608887 
	C188.948029,781.667603 187.430481,778.811401 186.736511,775.767334 
	C185.303268,769.480469 184.780151,762.956177 182.983459,756.791626 
	C181.572067,751.949158 177.916534,750.706604 173.524094,753.178406 
	C170.876785,754.668152 168.133591,756.950317 166.781326,759.571655 
	C164.218689,764.539368 161.412827,769.880188 160.845947,775.290039 
	C158.713257,795.642700 157.406479,816.083008 155.903381,836.498840 
	C155.760452,838.440002 156.343521,840.450867 156.700424,842.409119 
	C157.348862,845.966919 158.879227,848.562012 163.019150,848.980103 
	C167.408905,849.423401 171.085754,848.665833 172.958664,844.246826 
	C174.446503,840.736389 175.733307,837.132629 176.946075,833.515625 
	C178.532364,828.784546 179.675812,823.886658 181.525452,819.267029 
	C183.728546,813.764526 189.872849,813.102356 193.406952,817.882690 
	C194.652008,819.566833 195.691269,821.689819 195.987793,823.733826 
	C196.821716,829.482178 197.079437,835.312500 197.849991,841.072388 
	C198.239517,843.983948 198.510773,847.327820 200.096893,849.593079 
	C208.487167,861.576050 210.711319,860.880676 218.056030,850.690918 
	C222.440659,844.607910 224.791168,837.075562 228.202545,830.268127 
	C230.319611,826.043396 231.832947,820.306702 237.766464,820.809509 
	C243.217194,821.271484 243.723724,826.900146 244.979706,831.091064 
	C246.791824,837.137756 247.840790,843.440063 249.992142,849.350525 
	C252.093201,855.122803 255.496796,860.260010 262.753265,860.235352 
	C269.854248,860.211243 271.379791,854.300903 273.489716,849.344727 
	C276.292236,842.761475 278.493988,835.915710 281.450043,829.408081 
	C282.426025,827.259583 285.070557,824.275452 286.719238,824.415466 
	C288.953461,824.605225 291.809967,827.016418 292.896851,829.216858 
	C295.307220,834.096741 296.661713,839.486328 298.674072,844.578247 
	C300.377228,848.887756 301.833984,853.456848 304.404419,857.226013 
	C309.102386,864.114868 317.729858,864.069641 322.318176,857.113770 
	C324.626343,853.614624 325.827850,849.265930 326.968201,845.145935 
	C328.430603,839.862549 329.073151,834.348755 330.601685,829.089050 
	C331.162689,827.158630 333.331421,824.208557 334.614227,824.284973 
	C337.264679,824.442932 340.488586,825.711975 342.230072,827.646240 
	C344.357697,830.009399 345.114807,833.570984 346.629913,836.529663 
	C348.749359,840.668579 350.725250,844.928833 353.311432,848.767395 
	C355.910034,852.624329 359.576813,855.647644 364.680878,854.266357 
	C370.185120,852.776672 374.076904,849.120483 375.212036,843.379150 
	C375.884247,839.979065 375.717255,836.417908 376.006470,832.935730 
	C376.281494,829.624817 376.246185,826.205994 377.134430,823.056580 
	C377.743011,820.898804 379.344879,818.151672 381.167603,817.484558 
	C382.592346,816.963074 385.592377,818.767822 386.924957,820.352539 
	C390.556549,824.671387 393.617249,829.465210 397.017395,833.985657 
	C399.440948,837.207764 401.983826,840.544373 406.736176,839.756165 
	C411.940521,838.893005 415.009277,835.474976 416.083557,830.532410 
	C417.247894,825.175476 418.176910,819.738953 418.748016,814.288879 
	C419.460968,807.485535 422.036835,801.723328 427.187134,797.262268 
	C432.347015,792.793030 437.498779,788.278076 442.978027,784.220520 
	C464.371552,768.378052 483.560638,750.193787 501.129333,730.245117 
	C511.369507,718.617737 521.508606,706.897522 531.936523,695.440491 
	C539.482056,687.150330 548.545715,681.258179 559.748047,678.733887 
	C564.722412,677.612854 569.610962,675.662720 574.204651,673.408508 
	C580.614746,670.263000 581.821899,663.708069 576.808899,658.605713 
	C574.100830,655.849243 570.535583,653.435913 566.903687,652.199341 
	C560.972656,650.180054 554.651733,649.328613 548.530090,647.841492 
	C538.785706,645.474121 531.307312,649.273743 524.950745,656.272278 
	C517.221130,664.782593 509.358093,673.177429 501.811646,681.847534 
	C484.526764,701.706055 467.677795,721.952332 450.067749,741.515320 
	C443.213501,749.129822 435.045471,755.654236 426.984589,762.056702 
	C421.817291,766.160889 418.878784,764.930176 416.067871,759.023804 
	C415.280823,757.370117 414.620575,755.644226 413.705353,754.065491 
	C410.805878,749.063904 407.414032,747.941589 401.919342,749.799011 
	C394.259827,752.388245 391.481323,758.520752 390.005432,765.718018 
	C389.104858,770.109741 388.637177,774.724243 386.877625,778.760193 
	C385.631195,781.619080 382.548340,783.677368 380.285248,786.092957 
	C378.042938,783.909546 375.479828,781.961548 373.653534,779.472839 
	C372.010925,777.234497 371.377136,774.283569 369.935242,771.863220 
	C368.160217,768.883667 366.008942,766.128296 363.428650,762.815063 
M196.070862,518.577881 
	C204.236694,506.399384 209.554794,493.104584 212.757767,478.770142 
	C217.102371,459.326324 212.483276,443.271515 195.564926,432.114136 
	C184.927505,425.098969 173.910675,418.430176 162.394836,413.034210 
	C148.209229,406.387268 133.092789,405.143494 117.551300,408.838867 
	C103.822128,412.103241 92.232567,418.622131 84.500351,430.357910 
	C79.528183,437.904510 75.321312,446.244202 72.379471,454.782471 
	C65.153374,475.755096 67.116035,497.473297 68.599792,519.118958 
	C69.492859,532.147400 75.811951,541.859070 85.892731,549.251160 
	C112.229935,568.563477 126.312263,572.229980 159.254944,554.192322 
	C174.419556,545.889038 185.989609,533.399658 196.070862,518.577881 
M287.019989,650.632751 
	C285.922607,646.117737 285.210754,641.465881 283.664001,637.110413 
	C274.880524,612.377258 261.463928,590.236267 244.931870,569.994507 
	C240.334030,564.364929 235.058167,559.099915 229.353943,554.606262 
	C220.236801,547.424011 212.081619,548.147400 203.998276,556.399414 
	C200.547882,559.921814 197.519318,564.036926 195.059219,568.319336 
	C183.289993,588.806946 178.394577,610.980835 180.001190,634.511780 
	C180.767761,645.739258 183.240555,656.599060 189.389297,666.283936 
	C196.525040,677.523499 203.178467,680.224304 215.414368,675.739380 
	C226.468536,671.687622 237.787323,671.071289 249.313126,671.210022 
	C258.296661,671.318237 267.289459,671.509705 276.263947,671.222046 
	C282.525421,671.021240 286.637482,666.768860 287.207214,660.470581 
	C287.474976,657.510498 287.131836,654.495239 287.019989,650.632751 
z"/>
<path fill="#F6F6F6" opacity="1.000000" stroke="none" 
	d="
M296.236328,514.711670 
	C288.268280,495.642334 280.412140,476.931793 272.728485,458.150696 
	C271.480469,455.100128 270.794281,451.773682 270.201294,448.510590 
	C268.911530,441.413055 269.917175,434.594604 275.392792,429.565582 
	C295.769989,410.850189 318.916229,397.470551 347.504669,399.470490 
	C361.267975,400.433319 375.199127,403.944672 388.301208,408.478363 
	C426.693634,421.763275 463.158844,439.155975 495.434570,464.282471 
	C501.574677,469.062561 507.049438,474.774231 512.432983,480.434814 
	C529.222961,498.088623 533.662781,519.166199 528.443970,542.454041 
	C526.599304,550.685364 524.196533,558.919556 520.929626,566.681519 
	C508.576477,596.031616 487.430817,613.164307 454.414276,613.673828 
	C423.551056,614.150146 393.321899,610.419189 363.689484,601.698975 
	C347.181885,596.841125 334.530426,587.064941 326.340118,572.071777 
	C316.049744,553.234131 306.356567,534.070190 296.236328,514.711670 
z"/>
<path fill="#F4F4F4" opacity="1.000000" stroke="none" 
	d="
M363.724487,763.045532 
	C366.008942,766.128296 368.160217,768.883667 369.935242,771.863220 
	C371.377136,774.283569 372.010925,777.234497 373.653534,779.472839 
	C375.479828,781.961548 378.042938,783.909546 380.285248,786.092957 
	C382.548340,783.677368 385.631195,781.619080 386.877625,778.760193 
	C388.637177,774.724243 389.104858,770.109741 390.005432,765.718018 
	C391.481323,758.520752 394.259827,752.388245 401.919342,749.799011 
	C407.414032,747.941589 410.805878,749.063904 413.705353,754.065491 
	C414.620575,755.644226 415.280823,757.370117 416.067871,759.023804 
	C418.878784,764.930176 421.817291,766.160889 426.984589,762.056702 
	C435.045471,755.654236 443.213501,749.129822 450.067749,741.515320 
	C467.677795,721.952332 484.526764,701.706055 501.811646,681.847534 
	C509.358093,673.177429 517.221130,664.782593 524.950745,656.272278 
	C531.307312,649.273743 538.785706,645.474121 548.530090,647.841492 
	C554.651733,649.328613 560.972656,650.180054 566.903687,652.199341 
	C570.535583,653.435913 574.100830,655.849243 576.808899,658.605713 
	C581.821899,663.708069 580.614746,670.263000 574.204651,673.408508 
	C569.610962,675.662720 564.722412,677.612854 559.748047,678.733887 
	C548.545715,681.258179 539.482056,687.150330 531.936523,695.440491 
	C521.508606,706.897522 511.369507,718.617737 501.129333,730.245117 
	C483.560638,750.193787 464.371552,768.378052 442.978027,784.220520 
	C437.498779,788.278076 432.347015,792.793030 427.187134,797.262268 
	C422.036835,801.723328 419.460968,807.485535 418.748016,814.288879 
	C418.176910,819.738953 417.247894,825.175476 416.083557,830.532410 
	C415.009277,835.474976 411.940521,838.893005 406.736176,839.756165 
	C401.983826,840.544373 399.440948,837.207764 397.017395,833.985657 
	C393.617249,829.465210 390.556549,824.671387 386.924957,820.352539 
	C385.592377,818.767822 382.592346,816.963074 381.167603,817.484558 
	C379.344879,818.151672 377.743011,820.898804 377.134430,823.056580 
	C376.246185,826.205994 376.281494,829.624817 376.006470,832.935730 
	C375.717255,836.417908 375.884247,839.979065 375.212036,843.379150 
	C374.076904,849.120483 370.185120,852.776672 364.680878,854.266357 
	C359.576813,855.647644 355.910034,852.624329 353.311432,848.767395 
	C350.725250,844.928833 348.749359,840.668579 346.629913,836.529663 
	C345.114807,833.570984 344.357697,830.009399 342.230072,827.646240 
	C340.488586,825.711975 337.264679,824.442932 334.614227,824.284973 
	C333.331421,824.208557 331.162689,827.158630 330.601685,829.089050 
	C329.073151,834.348755 328.430603,839.862549 326.968201,845.145935 
	C325.827850,849.265930 324.626343,853.614624 322.318176,857.113770 
	C317.729858,864.069641 309.102386,864.114868 304.404419,857.226013 
	C301.833984,853.456848 300.377228,848.887756 298.674072,844.578247 
	C296.661713,839.486328 295.307220,834.096741 292.896851,829.216858 
	C291.809967,827.016418 288.953461,824.605225 286.719238,824.415466 
	C285.070557,824.275452 282.426025,827.259583 281.450043,829.408081 
	C278.493988,835.915710 276.292236,842.761475 273.489716,849.344727 
	C271.379791,854.300903 269.854248,860.211243 262.753265,860.235352 
	C255.496796,860.260010 252.093201,855.122803 249.992142,849.350525 
	C247.840790,843.440063 246.791824,837.137756 244.979706,831.091064 
	C243.723724,826.900146 243.217194,821.271484 237.766464,820.809509 
	C231.832947,820.306702 230.319611,826.043396 228.202545,830.268127 
	C224.791168,837.075562 222.440659,844.607910 218.056030,850.690918 
	C210.711319,860.880676 208.487167,861.576050 200.096893,849.593079 
	C198.510773,847.327820 198.239517,843.983948 197.849991,841.072388 
	C197.079437,835.312500 196.821716,829.482178 195.987793,823.733826 
	C195.691269,821.689819 194.652008,819.566833 193.406952,817.882690 
	C189.872849,813.102356 183.728546,813.764526 181.525452,819.267029 
	C179.675812,823.886658 178.532364,828.784546 176.946075,833.515625 
	C175.733307,837.132629 174.446503,840.736389 172.958664,844.246826 
	C171.085754,848.665833 167.408905,849.423401 163.019150,848.980103 
	C158.879227,848.562012 157.348862,845.966919 156.700424,842.409119 
	C156.343521,840.450867 155.760452,838.440002 155.903381,836.498840 
	C157.406479,816.083008 158.713257,795.642700 160.845947,775.290039 
	C161.412827,769.880188 164.218689,764.539368 166.781326,759.571655 
	C168.133591,756.950317 170.876785,754.668152 173.524094,753.178406 
	C177.916534,750.706604 181.572067,751.949158 182.983459,756.791626 
	C184.780151,762.956177 185.303268,769.480469 186.736511,775.767334 
	C187.430481,778.811401 188.948029,781.667603 190.092712,784.608887 
	C192.561600,782.607178 195.596619,781.008728 197.373734,778.514160 
	C200.447128,774.200134 202.697083,769.305115 205.375473,764.702087 
	C207.215317,761.540100 208.881668,758.202698 211.179565,755.397522 
	C215.688950,749.892639 224.449585,750.878662 227.386688,757.364136 
	C228.996460,760.918701 229.814667,764.995483 230.172348,768.911499 
	C230.609436,773.696960 229.925842,778.579041 230.258804,783.382446 
	C230.409866,785.562134 231.660553,789.337036 232.727768,789.451599 
	C235.367386,789.735107 239.303741,789.196533 240.701706,787.409851 
	C243.479996,783.859131 244.619003,779.080444 246.953049,775.113770 
	C249.934464,770.046936 253.147430,765.058716 256.797028,760.462524 
	C259.306152,757.302673 263.333588,757.191833 266.239349,759.731567 
	C269.620239,762.686768 272.953552,766.140442 275.006317,770.059326 
	C277.604279,775.019043 278.669189,780.756775 280.817841,785.985352 
	C282.356262,789.729065 284.605652,793.369080 289.578674,792.662598 
	C293.886261,792.050537 296.336060,788.127380 296.883209,782.602234 
	C297.339508,777.994446 297.782013,773.284302 299.122223,768.891479 
	C300.692047,763.746277 304.622223,760.594910 310.181427,760.114136 
	C315.505951,759.653748 318.538605,763.129761 320.685760,767.210754 
	C323.160400,771.914185 324.930573,776.983337 327.282562,781.757690 
	C329.290802,785.834351 330.923248,792.100647 335.896667,791.301086 
	C338.692230,790.851624 340.817017,784.585327 342.723572,780.685120 
	C344.900818,776.231262 345.964783,771.175842 348.478241,766.957275 
	C352.033447,760.990173 357.538910,759.833008 363.724487,763.045532 
z"/>
<path fill="#F6F6F6" opacity="1.000000" stroke="none" 
	d="
M195.890015,518.888062 
	C185.989609,533.399658 174.419556,545.889038 159.254944,554.192322 
	C126.312263,572.229980 112.229935,568.563477 85.892731,549.251160 
	C75.811951,541.859070 69.492859,532.147400 68.599792,519.118958 
	C67.116035,497.473297 65.153374,475.755096 72.379471,454.782471 
	C75.321312,446.244202 79.528183,437.904510 84.500351,430.357910 
	C92.232567,418.622131 103.822128,412.103241 117.551300,408.838867 
	C133.092789,405.143494 148.209229,406.387268 162.394836,413.034210 
	C173.910675,418.430176 184.927505,425.098969 195.564926,432.114136 
	C212.483276,443.271515 217.102371,459.326324 212.757767,478.770142 
	C209.554794,493.104584 204.236694,506.399384 195.890015,518.888062 
z"/>
<path fill="#F5F5F5" opacity="1.000000" stroke="none" 
	d="
M287.042755,651.068848 
	C287.131836,654.495239 287.474976,657.510498 287.207214,660.470581 
	C286.637482,666.768860 282.525421,671.021240 276.263947,671.222046 
	C267.289459,671.509705 258.296661,671.318237 249.313126,671.210022 
	C237.787323,671.071289 226.468536,671.687622 215.414368,675.739380 
	C203.178467,680.224304 196.525040,677.523499 189.389297,666.283936 
	C183.240555,656.599060 180.767761,645.739258 180.001190,634.511780 
	C178.394577,610.980835 183.289993,588.806946 195.059219,568.319336 
	C197.519318,564.036926 200.547882,559.921814 203.998276,556.399414 
	C212.081619,548.147400 220.236801,547.424011 229.353943,554.606262 
	C235.058167,559.099915 240.334030,564.364929 244.931870,569.994507 
	C261.463928,590.236267 274.880524,612.377258 283.664001,637.110413 
	C285.210754,641.465881 285.922607,646.117737 287.042755,651.068848 
z"/>
</svg>